<svg xmlns="http://www.w3.org/2000/svg" viewBox="0 0 64 64" width="64" height="64">
  <defs>
    <linearGradient id="bg" x1="0" y1="0" x2="1" y2="1">
      <stop offset="0%" stop-color="#7C4DFF"/>
      <stop offset="100%" stop-color="#6535E0"/>
    </linearGradient>
  </defs>
  <rect width="64" height="64" rx="14" fill="url(#bg)"/>
  <!-- B -->
  <path d="M14 14h10.5c3 0 5.5 0.8 7.2 2.3 1.4 1.3 2.2 3.1 2.2 5.2 0 2.8-1.4 4.8-3.8 5.8v0.2c3 0.8 4.8 3.2 4.8 6.2 0 2.4-0.9 4.3-2.5 5.7-1.8 1.6-4.5 2.6-8.2 2.6H14V14zm4.6 12h5.6c3.2 0 5-1.4 5-3.8 0-2.6-1.9-3.7-4.8-3.7h-5.8V26zm0 12.5h6.2c3.3 0 5.4-1.5 5.4-4.1 0-2.8-2.2-4.1-5.6-4.1h-6V38.5z" fill="#FFFFFF"/>
  <!-- A -->
  <path d="M38 42l9.5-28h5.2L62 42h-4.8l-2.5-7.8H44.8L42.4 42H38zm7.8-11.5h8.2l-2.5-7.8c-0.8-2.3-1.3-4.2-1.7-6.1h-0.1c-0.4 1.9-1 3.8-1.7 6L45.8 30.5z" fill="#FFFFFF"/>
</svg>
