<svg xmlns="http://www.w3.org/2000/svg" viewBox="0 0 529 529" width="64" height="64">
  <!-- Fondo negro cuadrado con esquinas redondeadas -->
  <rect width="529" height="529" rx="60" fill="#000000"/>
  <!-- Logo BA en blanco, centrado con padding -->
  <g transform="translate(30, 20) scale(0.88)">
    <path
      fill="#ffffff"
      d="m 372.30647,147.97701 -82.16501,192.23582 c -7.11985,16.88093 -13.6083,28.07703 -19.46496,33.58916 -2.87091,2.75607 -9.1866,4.99539 -18.94768,6.71794 v 6.37377 h 73.55262 v -6.37377 c -11.25395,-0.80386 -18.6037,-2.52642 -22.04879,-5.16765 -3.33026,-2.75608 -4.99556,-5.91393 -4.99556,-9.47384 0,-4.47862 1.95257,-11.25382 5.85701,-20.32589 l 15.84709,-36.86235 h 90.43376 l 14.12472,33.58968 c 4.59345,10.90944 6.89002,18.89045 6.89002,23.94324 0,3.78961 -1.66478,7.0047 -4.99504,9.64593 -3.21541,2.64123 -9.47387,4.19153 -18.7756,4.65088 v 6.37377 h 92.15561 v -6.37377 c -9.53143,-0.57418 -16.99566,-3.15802 -22.39295,-7.75147 -5.28247,-4.70829 -11.1964,-14.87086 -17.74207,-30.48858 L 378.33556,147.97701 Z m -352.776913,5.33973 v 6.37325 h 8.784994 c 8.842389,0 15.503113,2.5266 19.981726,7.57939 3.330251,3.7896 4.995561,12.91915 4.995561,27.38851 v 150.89466 c 0,13.09133 -1.320799,21.64635 -3.962032,25.66562 -4.24894,6.20117 -11.254176,9.30176 -21.015255,9.30176 h -8.784994 v 6.37377 L 136.448,387.03787 c 5.89752,0.007 11.2444,-0.44174 16.11788,-1.18029 -2.04579,3.61671 -3.59724,7.51637 -4.54442,11.61377 0.16638,2.20724 -2.37464,7.42976 0.63148,7.37836 1.34658,-5.45561 4.21874,-11.23944 8.6341,-15.21406 1.7569,-1.9047 6.2981,-5.68548 9.26248,-6.90139 0.23342,-0.0687 0.36305,-0.14187 0.59377,-0.21136 0.13527,-0.0415 0.26884,-0.0802 0.39429,-0.10697 -0.0595,0.007 -0.19216,0.0488 -0.25425,0.0574 13.29905,-4.02592 22.24753,-9.22499 29.67157,-9.01651 1.15303,-0.13267 2.22621,-0.26809 3.22565,-0.40773 3.58116,-0.16769 7.94458,-0.26509 10.88305,-0.3514 9.32097,0.12621 20.17935,-2.03886 25.74623,-10.25002 4.43139,-6.35186 0.9977,-14.10438 1.20097,-21.06228 -1.00989,-5.1528 4.90588,-6.83429 7.65999,-9.9627 3.13351,-3.24468 -0.40603,-7.27896 -2.34094,-9.92962 0.58734,-2.05145 4.0394,-2.21686 5.05447,-4.34651 3.50312,-4.02751 -3.42277,-7.45835 -1.12913,-11.6706 3.996,-5.5993 11.77044,-6.60009 16.60054,-11.25875 4.02294,-3.84002 -0.68769,-8.90054 -3.44062,-11.88971 -7.53549,-10.15626 -16.73796,-19.35792 -22.05033,-30.98312 -2.63099,-3.90977 -0.61056,-8.25558 0.48679,-12.23801 3.98769,-11.54705 2.52638,-24.43122 -2.27428,-35.52342 -5.67293,-12.26601 -13.25684,-24.20704 -24.32513,-32.28692 -7.58133,-5.53183 -16.61638,-8.42017 -25.48733,-11.23239 -7.08691,-1.31664 -14.25534,-3.01737 -21.47259,-3.13727 0.4001,0.0966 0.79752,0.19448 1.19321,0.29455 9.01318,1.96436 17.6493,5.43914 25.43152,10.41436 10.89451,7.19106 20.3543,17.13742 25.59792,29.2039 2.12146,6.37273 3.73759,13.01366 3.39824,19.77554 0.5951,3.54684 -0.78546,7.07583 -1.56373,10.53062 -3.41799,9.82343 -7.26897,20.17835 -15.23111,27.28619 -6.67589,6.46861 -14.55736,11.08664 -23.39384,13.79877 0.13807,0.0342 0.005,-0.004 0.005,-0.004 l -0.46819,0.19637 -1.9358,0.57722 -3.53157,0.91674 -4.24522,0.78135 -2.51302,0.40773 -2.41122,0.2713 -0.45734,-0.0336 c 3.17572,0.65272 6.10176,1.50698 8.68422,2.62516 11.13912,4.82313 17.39464,12.82142 22.86683,20.86591 5.8985,8.6712 4.90977,18.55105 4.90977,27.62312 0,13.78035 -13.90763,33.15965 -26.35394,41.80778 -10.90945,9.30173 -26.912,6.32313 -47.69735,6.32313 -12.9765,0 -26.39722,0.62313 -41.212473,-0.57567 v -95.77349 c 3.100578,-0.57418 19.088373,-4.43411 24.141163,-4.66379 5.05279,-0.22967 11.13898,-0.34417 18.25883,-0.34417 9.18188,0 18.70918,-0.0272 27.27224,0.7922 h 5.2e-4 l 0.67282,-0.19172 0.67955,-0.13591 0.61133,-0.0847 0.71314,-0.17001 0.54312,-0.13591 0.59427,-0.1018 0.98496,-0.20361 0.78083,-0.15296 1.64744,-0.42426 0.81494,-0.15297 1.17151,-0.22066 0.52658,-0.1359 0.95084,-0.22066 0.78084,-0.20361 0.67954,-0.17001 1.12035,-0.27182 0.20722,-0.0238 c -0.0156,-6.3e-4 -0.0309,-0.001 -0.0465,-0.002 13.89518,-4.47862 28.19661,-13.61675 34.16381,-23.37997 6.83169,-9.5899 9.18501,-16.69293 10.03246,-27.96883 1.03487,-13.76966 -3.69654,-22.93779 -11.80807,-33.7721 -9.07206,-10.56493 -20.5877,-18.87463 -36.94865,-24.25744 -11.36879,-2.75607 -25.60883,-2.06989 -44.43863,-2.42465 z m 97.840543,11.5409 c 21.35953,0 37.60882,4.82315 48.74793,14.4694 11.13911,9.64624 16.70905,21.30237 16.70905,34.96789 0,8.84237 -2.23932,16.99566 -6.71793,24.46001 -4.47862,7.46435 -10.96708,13.03377 -19.46496,16.70854 -8.38304,3.55993 -20.95771,5.33972 -37.7238,5.33972 -6.54567,0 -12.57461,-0.17223 -18.08675,-0.51676 -5.397305,-0.45933 -10.220463,-1.09061 -14.469403,-1.89446 v -89.74491 c 9.186895,-2.5264 19.522233,-3.78943 31.005863,-3.78943 z m 248.56312,36.69026 39.61825,94.39528 h -80.27003 z"/>
  </g>
</svg>
